<svg width="36" height="35" viewBox="0 0 36 35" fill="none" xmlns="http://www.w3.org/2000/svg">
<path d="M17.5102 35C27.1808 35 35.0204 27.165 35.0204 17.5C35.0204 7.83502 27.1808 0 17.5102 0C7.83959 0 0 7.83502 0 17.5C0 27.165 7.83959 35 17.5102 35Z" fill="white"/>
<path d="M18.0801 11.7061L21.5734 14.976C21.7153 14.8455 21.861 14.7145 22.0082 14.5821C22.3394 14.2842 22.6783 13.9794 22.999 13.6584C23.2198 13.4533 23.3459 13.1743 23.3499 12.8819C23.3538 12.5895 23.2352 12.3074 23.02 12.0972C22.4077 11.4757 21.7635 10.875 21.1072 10.2922C20.9044 10.1114 20.6381 10.0075 20.3593 10.0004C20.0804 9.99325 19.8086 10.0833 19.5957 10.2535C19.2241 10.5708 18.8791 10.9146 18.5354 11.257C18.3841 11.4077 18.233 11.5583 18.0801 11.7061Z" fill="#0D2D5F"/>
<path d="M20.8142 15.8868L17.1127 12.4365C17.0911 12.4514 17.0707 12.4679 17.0517 12.4856C15.1716 14.2468 13.2962 16.0118 11.4255 17.7805C11.3212 17.8882 11.2454 18.0176 11.2044 18.1583C10.9827 18.8599 10.7651 19.5628 10.5474 20.2658C10.3888 20.778 10.2302 21.2903 10.07 21.8022C9.99796 22.0327 9.93793 22.2556 10.138 22.453C10.2323 22.5348 10.3507 22.5876 10.4776 22.6045C10.6044 22.6214 10.7337 22.6015 10.8483 22.5474C11.3021 22.4195 11.7565 22.2933 12.2109 22.1671C13.0149 21.9439 13.8189 21.7206 14.6197 21.4877C14.841 21.4205 15.0427 21.3058 15.209 21.1524C17.0063 19.4712 18.8017 17.7881 20.5951 16.1031C20.6429 16.058 20.6891 16.0117 20.7352 15.9655C20.7614 15.9391 20.7877 15.9128 20.8142 15.8868Z" fill="#0D2D5F"/>
<path fill-rule="evenodd" clip-rule="evenodd" d="M9.42966 25C9.42966 24.4477 9.87738 24 10.4297 24H25.0033C25.5556 24 26.0033 24.4477 26.0033 25C26.0033 25.5523 25.5556 26 25.0033 26H10.4297C9.87738 26 9.42966 25.5523 9.42966 25Z" fill="#0D2D5F"/>
</svg>
